<?xml version="1.0" encoding="utf-8" standalone="no"?>
<!DOCTYPE svg PUBLIC "-//W3C//DTD SVG 1.1//EN"
  "http://www.w3.org/Graphics/SVG/1.1/DTD/svg11.dtd">
<svg xmlns:xlink="http://www.w3.org/1999/xlink" width="675.286953pt" height="191.808pt" viewBox="0 0 675.286953 191.808" xmlns="http://www.w3.org/2000/svg" version="1.1">
 <metadata>
  <rdf:RDF xmlns:dc="http://purl.org/dc/elements/1.1/" xmlns:cc="http://creativecommons.org/ns#" xmlns:rdf="http://www.w3.org/1999/02/22-rdf-syntax-ns#">
   <cc:Work>
    <dc:type rdf:resource="http://purl.org/dc/dcmitype/StillImage"/>
    <dc:date>2026-04-12T20:50:12.080194</dc:date>
    <dc:format>image/svg+xml</dc:format>
    <dc:creator>
     <cc:Agent>
      <dc:title>Matplotlib v3.10.8, https://matplotlib.org/</dc:title>
     </cc:Agent>
    </dc:creator>
   </cc:Work>
  </rdf:RDF>
 </metadata>
 <defs>
  <style type="text/css">*{stroke-linejoin: round; stroke-linecap: butt}</style>
 </defs>
 <g id="figure_1">
  <g id="patch_1">
   <path d="M 0 191.808 
L 675.286953 191.808 
L 675.286953 0 
L 0 0 
z
" style="fill: #ffffff"/>
  </g>
  <g id="axes_1">
   <g id="patch_2">
    <path d="M 129.453677 113.6448 
L 198.087677 113.6448 
Q 209.526677 113.6448 209.526677 109.2096 
L 209.526677 54.21312 
Q 209.526677 49.77792 198.087677 49.77792 
L 129.453677 49.77792 
Q 118.014677 49.77792 118.014677 54.21312 
L 118.014677 109.2096 
Q 118.014677 113.6448 129.453677 113.6448 
z
" clip-path="url(#p5af5597a23)" style="fill: #e8edf2; stroke: #263238; stroke-linejoin: miter"/>
   </g>
   <g id="patch_3">
    <path d="M 225.541277 113.6448 
L 298.750877 113.6448 
Q 310.189877 113.6448 310.189877 109.2096 
L 310.189877 54.21312 
Q 310.189877 49.77792 298.750877 49.77792 
L 225.541277 49.77792 
Q 214.102277 49.77792 214.102277 54.21312 
L 214.102277 109.2096 
Q 214.102277 113.6448 225.541277 113.6448 
z
" clip-path="url(#p5af5597a23)" style="fill: #e8f2ee; stroke: #263238; stroke-linejoin: miter"/>
   </g>
   <g id="patch_4">
    <path d="M 330.780077 113.6448 
L 394.838477 113.6448 
Q 406.277477 113.6448 406.277477 109.2096 
L 406.277477 54.21312 
Q 406.277477 49.77792 394.838477 49.77792 
L 330.780077 49.77792 
Q 319.341077 49.77792 319.341077 54.21312 
L 319.341077 109.2096 
Q 319.341077 113.6448 330.780077 113.6448 
z
" clip-path="url(#p5af5597a23)" style="fill: #fff4de; stroke: #263238; stroke-linejoin: miter"/>
   </g>
   <g id="patch_5">
    <path d="M 426.867677 113.6448 
L 495.501677 113.6448 
Q 506.940677 113.6448 506.940677 109.2096 
L 506.940677 54.21312 
Q 506.940677 49.77792 495.501677 49.77792 
L 426.867677 49.77792 
Q 415.428677 49.77792 415.428677 54.21312 
L 415.428677 109.2096 
Q 415.428677 113.6448 426.867677 113.6448 
z
" clip-path="url(#p5af5597a23)" style="fill: #fde8e1; stroke: #263238; stroke-linejoin: miter"/>
   </g>
   <g id="patch_6">
    <path d="M 204.660633 81.71136 
Q 211.812003 81.71136 217.398125 81.71136 
" clip-path="url(#p5af5597a23)" style="fill: none; stroke: #546e7a; stroke-width: 1.4; stroke-linecap: round"/>
    <path d="M 212.198125 79.11136 
L 217.398125 81.71136 
L 212.198125 84.31136 
z
" clip-path="url(#p5af5597a23)" style="fill: #546e7a; stroke: #546e7a; stroke-width: 1.4; stroke-linecap: round"/>
   </g>
   <g id="patch_7">
    <path d="M 305.32886 81.71136 
Q 314.766463 81.71136 322.638819 81.71136 
" clip-path="url(#p5af5597a23)" style="fill: none; stroke: #546e7a; stroke-width: 1.4; stroke-linecap: round"/>
    <path d="M 317.438819 79.11136 
L 322.638819 81.71136 
L 317.438819 84.31136 
z
" clip-path="url(#p5af5597a23)" style="fill: #546e7a; stroke: #546e7a; stroke-width: 1.4; stroke-linecap: round"/>
   </g>
   <g id="patch_8">
    <path d="M 401.41646 81.71136 
Q 410.854063 81.71136 418.726419 81.71136 
" clip-path="url(#p5af5597a23)" style="fill: none; stroke: #546e7a; stroke-width: 1.4; stroke-linecap: round"/>
    <path d="M 413.526419 79.11136 
L 418.726419 81.71136 
L 413.526419 84.31136 
z
" clip-path="url(#p5af5597a23)" style="fill: #546e7a; stroke: #546e7a; stroke-width: 1.4; stroke-linecap: round"/>
   </g>
   <g id="text_1">
    <!-- Tea exposure -->
    <g transform="translate(126.493333 74.81974) scale(0.1 -0.1)">
     <defs>
      <path id="DejaVuSans-Bold-54" d="M 31 4666 
L 4331 4666 
L 4331 3756 
L 2784 3756 
L 2784 0 
L 1581 0 
L 1581 3756 
L 31 3756 
L 31 4666 
z
" transform="scale(0.015625)"/>
      <path id="DejaVuSans-Bold-65" d="M 4031 1759 
L 4031 1441 
L 1416 1441 
Q 1456 1047 1700 850 
Q 1944 653 2381 653 
Q 2734 653 3104 758 
Q 3475 863 3866 1075 
L 3866 213 
Q 3469 63 3072 -14 
Q 2675 -91 2278 -91 
Q 1328 -91 801 392 
Q 275 875 275 1747 
Q 275 2603 792 3093 
Q 1309 3584 2216 3584 
Q 3041 3584 3536 3087 
Q 4031 2591 4031 1759 
z
M 2881 2131 
Q 2881 2450 2695 2645 
Q 2509 2841 2209 2841 
Q 1884 2841 1681 2658 
Q 1478 2475 1428 2131 
L 2881 2131 
z
" transform="scale(0.015625)"/>
      <path id="DejaVuSans-Bold-61" d="M 2106 1575 
Q 1756 1575 1579 1456 
Q 1403 1338 1403 1106 
Q 1403 894 1545 773 
Q 1688 653 1941 653 
Q 2256 653 2472 879 
Q 2688 1106 2688 1447 
L 2688 1575 
L 2106 1575 
z
M 3816 1997 
L 3816 0 
L 2688 0 
L 2688 519 
Q 2463 200 2181 54 
Q 1900 -91 1497 -91 
Q 953 -91 614 226 
Q 275 544 275 1050 
Q 275 1666 698 1953 
Q 1122 2241 2028 2241 
L 2688 2241 
L 2688 2328 
Q 2688 2594 2478 2717 
Q 2269 2841 1825 2841 
Q 1466 2841 1156 2769 
Q 847 2697 581 2553 
L 581 3406 
Q 941 3494 1303 3539 
Q 1666 3584 2028 3584 
Q 2975 3584 3395 3211 
Q 3816 2838 3816 1997 
z
" transform="scale(0.015625)"/>
      <path id="DejaVuSans-Bold-20" transform="scale(0.015625)"/>
      <path id="DejaVuSans-Bold-78" d="M 1422 1791 
L 159 3500 
L 1344 3500 
L 2059 2463 
L 2784 3500 
L 3969 3500 
L 2706 1797 
L 4031 0 
L 2847 0 
L 2059 1106 
L 1281 0 
L 97 0 
L 1422 1791 
z
" transform="scale(0.015625)"/>
      <path id="DejaVuSans-Bold-70" d="M 1656 506 
L 1656 -1331 
L 538 -1331 
L 538 3500 
L 1656 3500 
L 1656 2988 
Q 1888 3294 2169 3439 
Q 2450 3584 2816 3584 
Q 3463 3584 3878 3070 
Q 4294 2556 4294 1747 
Q 4294 938 3878 423 
Q 3463 -91 2816 -91 
Q 2450 -91 2169 54 
Q 1888 200 1656 506 
z
M 2400 2772 
Q 2041 2772 1848 2508 
Q 1656 2244 1656 1747 
Q 1656 1250 1848 986 
Q 2041 722 2400 722 
Q 2759 722 2948 984 
Q 3138 1247 3138 1747 
Q 3138 2247 2948 2509 
Q 2759 2772 2400 2772 
z
" transform="scale(0.015625)"/>
      <path id="DejaVuSans-Bold-6f" d="M 2203 2784 
Q 1831 2784 1636 2517 
Q 1441 2250 1441 1747 
Q 1441 1244 1636 976 
Q 1831 709 2203 709 
Q 2569 709 2762 976 
Q 2956 1244 2956 1747 
Q 2956 2250 2762 2517 
Q 2569 2784 2203 2784 
z
M 2203 3584 
Q 3106 3584 3614 3096 
Q 4122 2609 4122 1747 
Q 4122 884 3614 396 
Q 3106 -91 2203 -91 
Q 1297 -91 786 396 
Q 275 884 275 1747 
Q 275 2609 786 3096 
Q 1297 3584 2203 3584 
z
" transform="scale(0.015625)"/>
      <path id="DejaVuSans-Bold-73" d="M 3272 3391 
L 3272 2541 
Q 2913 2691 2578 2766 
Q 2244 2841 1947 2841 
Q 1628 2841 1473 2761 
Q 1319 2681 1319 2516 
Q 1319 2381 1436 2309 
Q 1553 2238 1856 2203 
L 2053 2175 
Q 2913 2066 3209 1816 
Q 3506 1566 3506 1031 
Q 3506 472 3093 190 
Q 2681 -91 1863 -91 
Q 1516 -91 1145 -36 
Q 775 19 384 128 
L 384 978 
Q 719 816 1070 734 
Q 1422 653 1784 653 
Q 2113 653 2278 743 
Q 2444 834 2444 1013 
Q 2444 1163 2330 1236 
Q 2216 1309 1875 1350 
L 1678 1375 
Q 931 1469 631 1722 
Q 331 1975 331 2491 
Q 331 3047 712 3315 
Q 1094 3584 1881 3584 
Q 2191 3584 2531 3537 
Q 2872 3491 3272 3391 
z
" transform="scale(0.015625)"/>
      <path id="DejaVuSans-Bold-75" d="M 500 1363 
L 500 3500 
L 1625 3500 
L 1625 3150 
Q 1625 2866 1622 2436 
Q 1619 2006 1619 1863 
Q 1619 1441 1641 1255 
Q 1663 1069 1716 984 
Q 1784 875 1895 815 
Q 2006 756 2150 756 
Q 2500 756 2700 1025 
Q 2900 1294 2900 1772 
L 2900 3500 
L 4019 3500 
L 4019 0 
L 2900 0 
L 2900 506 
Q 2647 200 2364 54 
Q 2081 -91 1741 -91 
Q 1134 -91 817 281 
Q 500 653 500 1363 
z
" transform="scale(0.015625)"/>
      <path id="DejaVuSans-Bold-72" d="M 3138 2547 
Q 2991 2616 2845 2648 
Q 2700 2681 2553 2681 
Q 2122 2681 1889 2404 
Q 1656 2128 1656 1613 
L 1656 0 
L 538 0 
L 538 3500 
L 1656 3500 
L 1656 2925 
Q 1872 3269 2151 3426 
Q 2431 3584 2822 3584 
Q 2878 3584 2943 3579 
Q 3009 3575 3134 3559 
L 3138 2547 
z
" transform="scale(0.015625)"/>
     </defs>
     <use xlink:href="#DejaVuSans-Bold-54"/>
     <use xlink:href="#DejaVuSans-Bold-65" transform="translate(54.962891 0)"/>
     <use xlink:href="#DejaVuSans-Bold-61" transform="translate(122.785156 0)"/>
     <use xlink:href="#DejaVuSans-Bold-20" transform="translate(190.265625 0)"/>
     <use xlink:href="#DejaVuSans-Bold-65" transform="translate(225.080078 0)"/>
     <use xlink:href="#DejaVuSans-Bold-78" transform="translate(292.902344 0)"/>
     <use xlink:href="#DejaVuSans-Bold-70" transform="translate(357.404297 0)"/>
     <use xlink:href="#DejaVuSans-Bold-6f" transform="translate(428.986328 0)"/>
     <use xlink:href="#DejaVuSans-Bold-73" transform="translate(497.6875 0)"/>
     <use xlink:href="#DejaVuSans-Bold-75" transform="translate(557.208984 0)"/>
     <use xlink:href="#DejaVuSans-Bold-72" transform="translate(628.400391 0)"/>
     <use xlink:href="#DejaVuSans-Bold-65" transform="translate(677.716797 0)"/>
    </g>
   </g>
   <g id="text_2">
    <!-- tea polysaccharides -->
    <g transform="translate(122.793739 88.466234) scale(0.082 -0.082)">
     <defs>
      <path id="DejaVuSans-74" d="M 1172 4494 
L 1172 3500 
L 2356 3500 
L 2356 3053 
L 1172 3053 
L 1172 1153 
Q 1172 725 1289 603 
Q 1406 481 1766 481 
L 2356 481 
L 2356 0 
L 1766 0 
Q 1100 0 847 248 
Q 594 497 594 1153 
L 594 3053 
L 172 3053 
L 172 3500 
L 594 3500 
L 594 4494 
L 1172 4494 
z
" transform="scale(0.015625)"/>
      <path id="DejaVuSans-65" d="M 3597 1894 
L 3597 1613 
L 953 1613 
Q 991 1019 1311 708 
Q 1631 397 2203 397 
Q 2534 397 2845 478 
Q 3156 559 3463 722 
L 3463 178 
Q 3153 47 2828 -22 
Q 2503 -91 2169 -91 
Q 1331 -91 842 396 
Q 353 884 353 1716 
Q 353 2575 817 3079 
Q 1281 3584 2069 3584 
Q 2775 3584 3186 3129 
Q 3597 2675 3597 1894 
z
M 3022 2063 
Q 3016 2534 2758 2815 
Q 2500 3097 2075 3097 
Q 1594 3097 1305 2825 
Q 1016 2553 972 2059 
L 3022 2063 
z
" transform="scale(0.015625)"/>
      <path id="DejaVuSans-61" d="M 2194 1759 
Q 1497 1759 1228 1600 
Q 959 1441 959 1056 
Q 959 750 1161 570 
Q 1363 391 1709 391 
Q 2188 391 2477 730 
Q 2766 1069 2766 1631 
L 2766 1759 
L 2194 1759 
z
M 3341 1997 
L 3341 0 
L 2766 0 
L 2766 531 
Q 2569 213 2275 61 
Q 1981 -91 1556 -91 
Q 1019 -91 701 211 
Q 384 513 384 1019 
Q 384 1609 779 1909 
Q 1175 2209 1959 2209 
L 2766 2209 
L 2766 2266 
Q 2766 2663 2505 2880 
Q 2244 3097 1772 3097 
Q 1472 3097 1187 3025 
Q 903 2953 641 2809 
L 641 3341 
Q 956 3463 1253 3523 
Q 1550 3584 1831 3584 
Q 2591 3584 2966 3190 
Q 3341 2797 3341 1997 
z
" transform="scale(0.015625)"/>
      <path id="DejaVuSans-20" transform="scale(0.015625)"/>
      <path id="DejaVuSans-70" d="M 1159 525 
L 1159 -1331 
L 581 -1331 
L 581 3500 
L 1159 3500 
L 1159 2969 
Q 1341 3281 1617 3432 
Q 1894 3584 2278 3584 
Q 2916 3584 3314 3078 
Q 3713 2572 3713 1747 
Q 3713 922 3314 415 
Q 2916 -91 2278 -91 
Q 1894 -91 1617 61 
Q 1341 213 1159 525 
z
M 3116 1747 
Q 3116 2381 2855 2742 
Q 2594 3103 2138 3103 
Q 1681 3103 1420 2742 
Q 1159 2381 1159 1747 
Q 1159 1113 1420 752 
Q 1681 391 2138 391 
Q 2594 391 2855 752 
Q 3116 1113 3116 1747 
z
" transform="scale(0.015625)"/>
      <path id="DejaVuSans-6f" d="M 1959 3097 
Q 1497 3097 1228 2736 
Q 959 2375 959 1747 
Q 959 1119 1226 758 
Q 1494 397 1959 397 
Q 2419 397 2687 759 
Q 2956 1122 2956 1747 
Q 2956 2369 2687 2733 
Q 2419 3097 1959 3097 
z
M 1959 3584 
Q 2709 3584 3137 3096 
Q 3566 2609 3566 1747 
Q 3566 888 3137 398 
Q 2709 -91 1959 -91 
Q 1206 -91 779 398 
Q 353 888 353 1747 
Q 353 2609 779 3096 
Q 1206 3584 1959 3584 
z
" transform="scale(0.015625)"/>
      <path id="DejaVuSans-6c" d="M 603 4863 
L 1178 4863 
L 1178 0 
L 603 0 
L 603 4863 
z
" transform="scale(0.015625)"/>
      <path id="DejaVuSans-79" d="M 2059 -325 
Q 1816 -950 1584 -1140 
Q 1353 -1331 966 -1331 
L 506 -1331 
L 506 -850 
L 844 -850 
Q 1081 -850 1212 -737 
Q 1344 -625 1503 -206 
L 1606 56 
L 191 3500 
L 800 3500 
L 1894 763 
L 2988 3500 
L 3597 3500 
L 2059 -325 
z
" transform="scale(0.015625)"/>
      <path id="DejaVuSans-73" d="M 2834 3397 
L 2834 2853 
Q 2591 2978 2328 3040 
Q 2066 3103 1784 3103 
Q 1356 3103 1142 2972 
Q 928 2841 928 2578 
Q 928 2378 1081 2264 
Q 1234 2150 1697 2047 
L 1894 2003 
Q 2506 1872 2764 1633 
Q 3022 1394 3022 966 
Q 3022 478 2636 193 
Q 2250 -91 1575 -91 
Q 1294 -91 989 -36 
Q 684 19 347 128 
L 347 722 
Q 666 556 975 473 
Q 1284 391 1588 391 
Q 1994 391 2212 530 
Q 2431 669 2431 922 
Q 2431 1156 2273 1281 
Q 2116 1406 1581 1522 
L 1381 1569 
Q 847 1681 609 1914 
Q 372 2147 372 2553 
Q 372 3047 722 3315 
Q 1072 3584 1716 3584 
Q 2034 3584 2315 3537 
Q 2597 3491 2834 3397 
z
" transform="scale(0.015625)"/>
      <path id="DejaVuSans-63" d="M 3122 3366 
L 3122 2828 
Q 2878 2963 2633 3030 
Q 2388 3097 2138 3097 
Q 1578 3097 1268 2742 
Q 959 2388 959 1747 
Q 959 1106 1268 751 
Q 1578 397 2138 397 
Q 2388 397 2633 464 
Q 2878 531 3122 666 
L 3122 134 
Q 2881 22 2623 -34 
Q 2366 -91 2075 -91 
Q 1284 -91 818 406 
Q 353 903 353 1747 
Q 353 2603 823 3093 
Q 1294 3584 2113 3584 
Q 2378 3584 2631 3529 
Q 2884 3475 3122 3366 
z
" transform="scale(0.015625)"/>
      <path id="DejaVuSans-68" d="M 3513 2113 
L 3513 0 
L 2938 0 
L 2938 2094 
Q 2938 2591 2744 2837 
Q 2550 3084 2163 3084 
Q 1697 3084 1428 2787 
Q 1159 2491 1159 1978 
L 1159 0 
L 581 0 
L 581 4863 
L 1159 4863 
L 1159 2956 
Q 1366 3272 1645 3428 
Q 1925 3584 2291 3584 
Q 2894 3584 3203 3211 
Q 3513 2838 3513 2113 
z
" transform="scale(0.015625)"/>
      <path id="DejaVuSans-72" d="M 2631 2963 
Q 2534 3019 2420 3045 
Q 2306 3072 2169 3072 
Q 1681 3072 1420 2755 
Q 1159 2438 1159 1844 
L 1159 0 
L 581 0 
L 581 3500 
L 1159 3500 
L 1159 2956 
Q 1341 3275 1631 3429 
Q 1922 3584 2338 3584 
Q 2397 3584 2469 3576 
Q 2541 3569 2628 3553 
L 2631 2963 
z
" transform="scale(0.015625)"/>
      <path id="DejaVuSans-69" d="M 603 3500 
L 1178 3500 
L 1178 0 
L 603 0 
L 603 3500 
z
M 603 4863 
L 1178 4863 
L 1178 4134 
L 603 4134 
L 603 4863 
z
" transform="scale(0.015625)"/>
      <path id="DejaVuSans-64" d="M 2906 2969 
L 2906 4863 
L 3481 4863 
L 3481 0 
L 2906 0 
L 2906 525 
Q 2725 213 2448 61 
Q 2172 -91 1784 -91 
Q 1150 -91 751 415 
Q 353 922 353 1747 
Q 353 2572 751 3078 
Q 1150 3584 1784 3584 
Q 2172 3584 2448 3432 
Q 2725 3281 2906 2969 
z
M 947 1747 
Q 947 1113 1208 752 
Q 1469 391 1925 391 
Q 2381 391 2643 752 
Q 2906 1113 2906 1747 
Q 2906 2381 2643 2742 
Q 2381 3103 1925 3103 
Q 1469 3103 1208 2742 
Q 947 2381 947 1747 
z
" transform="scale(0.015625)"/>
     </defs>
     <use xlink:href="#DejaVuSans-74"/>
     <use xlink:href="#DejaVuSans-65" transform="translate(39.208984 0)"/>
     <use xlink:href="#DejaVuSans-61" transform="translate(100.732422 0)"/>
     <use xlink:href="#DejaVuSans-20" transform="translate(162.011719 0)"/>
     <use xlink:href="#DejaVuSans-70" transform="translate(193.798828 0)"/>
     <use xlink:href="#DejaVuSans-6f" transform="translate(257.275391 0)"/>
     <use xlink:href="#DejaVuSans-6c" transform="translate(318.457031 0)"/>
     <use xlink:href="#DejaVuSans-79" transform="translate(346.240234 0)"/>
     <use xlink:href="#DejaVuSans-73" transform="translate(405.419922 0)"/>
     <use xlink:href="#DejaVuSans-61" transform="translate(457.519531 0)"/>
     <use xlink:href="#DejaVuSans-63" transform="translate(518.798828 0)"/>
     <use xlink:href="#DejaVuSans-63" transform="translate(573.779297 0)"/>
     <use xlink:href="#DejaVuSans-68" transform="translate(628.759766 0)"/>
     <use xlink:href="#DejaVuSans-61" transform="translate(692.138672 0)"/>
     <use xlink:href="#DejaVuSans-72" transform="translate(753.417969 0)"/>
     <use xlink:href="#DejaVuSans-69" transform="translate(794.53125 0)"/>
     <use xlink:href="#DejaVuSans-64" transform="translate(822.314453 0)"/>
     <use xlink:href="#DejaVuSans-65" transform="translate(885.791016 0)"/>
     <use xlink:href="#DejaVuSans-73" transform="translate(947.314453 0)"/>
    </g>
    <!-- black/yellow/dark tea -->
    <g transform="translate(119.915411 97.64844) scale(0.082 -0.082)">
     <defs>
      <path id="DejaVuSans-62" d="M 3116 1747 
Q 3116 2381 2855 2742 
Q 2594 3103 2138 3103 
Q 1681 3103 1420 2742 
Q 1159 2381 1159 1747 
Q 1159 1113 1420 752 
Q 1681 391 2138 391 
Q 2594 391 2855 752 
Q 3116 1113 3116 1747 
z
M 1159 2969 
Q 1341 3281 1617 3432 
Q 1894 3584 2278 3584 
Q 2916 3584 3314 3078 
Q 3713 2572 3713 1747 
Q 3713 922 3314 415 
Q 2916 -91 2278 -91 
Q 1894 -91 1617 61 
Q 1341 213 1159 525 
L 1159 0 
L 581 0 
L 581 4863 
L 1159 4863 
L 1159 2969 
z
" transform="scale(0.015625)"/>
      <path id="DejaVuSans-6b" d="M 581 4863 
L 1159 4863 
L 1159 1991 
L 2875 3500 
L 3609 3500 
L 1753 1863 
L 3688 0 
L 2938 0 
L 1159 1709 
L 1159 0 
L 581 0 
L 581 4863 
z
" transform="scale(0.015625)"/>
      <path id="DejaVuSans-2f" d="M 1625 4666 
L 2156 4666 
L 531 -594 
L 0 -594 
L 1625 4666 
z
" transform="scale(0.015625)"/>
      <path id="DejaVuSans-77" d="M 269 3500 
L 844 3500 
L 1563 769 
L 2278 3500 
L 2956 3500 
L 3675 769 
L 4391 3500 
L 4966 3500 
L 4050 0 
L 3372 0 
L 2619 2869 
L 1863 0 
L 1184 0 
L 269 3500 
z
" transform="scale(0.015625)"/>
     </defs>
     <use xlink:href="#DejaVuSans-62"/>
     <use xlink:href="#DejaVuSans-6c" transform="translate(63.476562 0)"/>
     <use xlink:href="#DejaVuSans-61" transform="translate(91.259766 0)"/>
     <use xlink:href="#DejaVuSans-63" transform="translate(152.539062 0)"/>
     <use xlink:href="#DejaVuSans-6b" transform="translate(207.519531 0)"/>
     <use xlink:href="#DejaVuSans-2f" transform="translate(265.429688 0)"/>
     <use xlink:href="#DejaVuSans-79" transform="translate(299.121094 0)"/>
     <use xlink:href="#DejaVuSans-65" transform="translate(358.300781 0)"/>
     <use xlink:href="#DejaVuSans-6c" transform="translate(419.824219 0)"/>
     <use xlink:href="#DejaVuSans-6c" transform="translate(447.607422 0)"/>
     <use xlink:href="#DejaVuSans-6f" transform="translate(475.390625 0)"/>
     <use xlink:href="#DejaVuSans-77" transform="translate(536.572266 0)"/>
     <use xlink:href="#DejaVuSans-2f" transform="translate(618.359375 0)"/>
     <use xlink:href="#DejaVuSans-64" transform="translate(652.050781 0)"/>
     <use xlink:href="#DejaVuSans-61" transform="translate(715.527344 0)"/>
     <use xlink:href="#DejaVuSans-72" transform="translate(776.806641 0)"/>
     <use xlink:href="#DejaVuSans-6b" transform="translate(817.919922 0)"/>
     <use xlink:href="#DejaVuSans-20" transform="translate(875.830078 0)"/>
     <use xlink:href="#DejaVuSans-74" transform="translate(907.617188 0)"/>
     <use xlink:href="#DejaVuSans-65" transform="translate(946.826172 0)"/>
     <use xlink:href="#DejaVuSans-61" transform="translate(1008.349609 0)"/>
    </g>
   </g>
   <g id="text_3">
    <!-- Microbiota -->
    <g transform="translate(232.099202 74.81974) scale(0.1 -0.1)">
     <defs>
      <path id="DejaVuSans-Bold-4d" d="M 588 4666 
L 2119 4666 
L 3181 2169 
L 4250 4666 
L 5778 4666 
L 5778 0 
L 4641 0 
L 4641 3413 
L 3566 897 
L 2803 897 
L 1728 3413 
L 1728 0 
L 588 0 
L 588 4666 
z
" transform="scale(0.015625)"/>
      <path id="DejaVuSans-Bold-69" d="M 538 3500 
L 1656 3500 
L 1656 0 
L 538 0 
L 538 3500 
z
M 538 4863 
L 1656 4863 
L 1656 3950 
L 538 3950 
L 538 4863 
z
" transform="scale(0.015625)"/>
      <path id="DejaVuSans-Bold-63" d="M 3366 3391 
L 3366 2478 
Q 3138 2634 2908 2709 
Q 2678 2784 2431 2784 
Q 1963 2784 1702 2511 
Q 1441 2238 1441 1747 
Q 1441 1256 1702 982 
Q 1963 709 2431 709 
Q 2694 709 2930 787 
Q 3166 866 3366 1019 
L 3366 103 
Q 3103 6 2833 -42 
Q 2563 -91 2291 -91 
Q 1344 -91 809 395 
Q 275 881 275 1747 
Q 275 2613 809 3098 
Q 1344 3584 2291 3584 
Q 2566 3584 2833 3536 
Q 3100 3488 3366 3391 
z
" transform="scale(0.015625)"/>
      <path id="DejaVuSans-Bold-62" d="M 2400 722 
Q 2759 722 2948 984 
Q 3138 1247 3138 1747 
Q 3138 2247 2948 2509 
Q 2759 2772 2400 2772 
Q 2041 2772 1848 2508 
Q 1656 2244 1656 1747 
Q 1656 1250 1848 986 
Q 2041 722 2400 722 
z
M 1656 2988 
Q 1888 3294 2169 3439 
Q 2450 3584 2816 3584 
Q 3463 3584 3878 3070 
Q 4294 2556 4294 1747 
Q 4294 938 3878 423 
Q 3463 -91 2816 -91 
Q 2450 -91 2169 54 
Q 1888 200 1656 506 
L 1656 0 
L 538 0 
L 538 4863 
L 1656 4863 
L 1656 2988 
z
" transform="scale(0.015625)"/>
      <path id="DejaVuSans-Bold-74" d="M 1759 4494 
L 1759 3500 
L 2913 3500 
L 2913 2700 
L 1759 2700 
L 1759 1216 
Q 1759 972 1856 886 
Q 1953 800 2241 800 
L 2816 800 
L 2816 0 
L 1856 0 
Q 1194 0 917 276 
Q 641 553 641 1216 
L 641 2700 
L 84 2700 
L 84 3500 
L 641 3500 
L 641 4494 
L 1759 4494 
z
" transform="scale(0.015625)"/>
     </defs>
     <use xlink:href="#DejaVuSans-Bold-4d"/>
     <use xlink:href="#DejaVuSans-Bold-69" transform="translate(99.511719 0)"/>
     <use xlink:href="#DejaVuSans-Bold-63" transform="translate(133.789062 0)"/>
     <use xlink:href="#DejaVuSans-Bold-72" transform="translate(193.066406 0)"/>
     <use xlink:href="#DejaVuSans-Bold-6f" transform="translate(242.382812 0)"/>
     <use xlink:href="#DejaVuSans-Bold-62" transform="translate(311.083984 0)"/>
     <use xlink:href="#DejaVuSans-Bold-69" transform="translate(382.666016 0)"/>
     <use xlink:href="#DejaVuSans-Bold-6f" transform="translate(416.943359 0)"/>
     <use xlink:href="#DejaVuSans-Bold-74" transform="translate(485.644531 0)"/>
     <use xlink:href="#DejaVuSans-Bold-61" transform="translate(533.447266 0)"/>
    </g>
   </g>
   <g id="text_4">
    <!-- gut microbiota -->
    <g transform="translate(232.175077 88.466234) scale(0.082 -0.082)">
     <defs>
      <path id="DejaVuSans-67" d="M 2906 1791 
Q 2906 2416 2648 2759 
Q 2391 3103 1925 3103 
Q 1463 3103 1205 2759 
Q 947 2416 947 1791 
Q 947 1169 1205 825 
Q 1463 481 1925 481 
Q 2391 481 2648 825 
Q 2906 1169 2906 1791 
z
M 3481 434 
Q 3481 -459 3084 -895 
Q 2688 -1331 1869 -1331 
Q 1566 -1331 1297 -1286 
Q 1028 -1241 775 -1147 
L 775 -588 
Q 1028 -725 1275 -790 
Q 1522 -856 1778 -856 
Q 2344 -856 2625 -561 
Q 2906 -266 2906 331 
L 2906 616 
Q 2728 306 2450 153 
Q 2172 0 1784 0 
Q 1141 0 747 490 
Q 353 981 353 1791 
Q 353 2603 747 3093 
Q 1141 3584 1784 3584 
Q 2172 3584 2450 3431 
Q 2728 3278 2906 2969 
L 2906 3500 
L 3481 3500 
L 3481 434 
z
" transform="scale(0.015625)"/>
      <path id="DejaVuSans-75" d="M 544 1381 
L 544 3500 
L 1119 3500 
L 1119 1403 
Q 1119 906 1312 657 
Q 1506 409 1894 409 
Q 2359 409 2629 706 
Q 2900 1003 2900 1516 
L 2900 3500 
L 3475 3500 
L 3475 0 
L 2900 0 
L 2900 538 
Q 2691 219 2414 64 
Q 2138 -91 1772 -91 
Q 1169 -91 856 284 
Q 544 659 544 1381 
z
M 1991 3584 
L 1991 3584 
z
" transform="scale(0.015625)"/>
      <path id="DejaVuSans-6d" d="M 3328 2828 
Q 3544 3216 3844 3400 
Q 4144 3584 4550 3584 
Q 5097 3584 5394 3201 
Q 5691 2819 5691 2113 
L 5691 0 
L 5113 0 
L 5113 2094 
Q 5113 2597 4934 2840 
Q 4756 3084 4391 3084 
Q 3944 3084 3684 2787 
Q 3425 2491 3425 1978 
L 3425 0 
L 2847 0 
L 2847 2094 
Q 2847 2600 2669 2842 
Q 2491 3084 2119 3084 
Q 1678 3084 1418 2786 
Q 1159 2488 1159 1978 
L 1159 0 
L 581 0 
L 581 3500 
L 1159 3500 
L 1159 2956 
Q 1356 3278 1631 3431 
Q 1906 3584 2284 3584 
Q 2666 3584 2933 3390 
Q 3200 3197 3328 2828 
z
" transform="scale(0.015625)"/>
     </defs>
     <use xlink:href="#DejaVuSans-67"/>
     <use xlink:href="#DejaVuSans-75" transform="translate(63.476562 0)"/>
     <use xlink:href="#DejaVuSans-74" transform="translate(126.855469 0)"/>
     <use xlink:href="#DejaVuSans-20" transform="translate(166.064453 0)"/>
     <use xlink:href="#DejaVuSans-6d" transform="translate(197.851562 0)"/>
     <use xlink:href="#DejaVuSans-69" transform="translate(295.263672 0)"/>
     <use xlink:href="#DejaVuSans-63" transform="translate(323.046875 0)"/>
     <use xlink:href="#DejaVuSans-72" transform="translate(378.027344 0)"/>
     <use xlink:href="#DejaVuSans-6f" transform="translate(416.890625 0)"/>
     <use xlink:href="#DejaVuSans-62" transform="translate(478.072266 0)"/>
     <use xlink:href="#DejaVuSans-69" transform="translate(541.548828 0)"/>
     <use xlink:href="#DejaVuSans-6f" transform="translate(569.332031 0)"/>
     <use xlink:href="#DejaVuSans-74" transform="translate(630.513672 0)"/>
     <use xlink:href="#DejaVuSans-61" transform="translate(669.722656 0)"/>
    </g>
    <!-- SCFA producers -->
    <g transform="translate(230.084077 97.64844) scale(0.082 -0.082)">
     <defs>
      <path id="DejaVuSans-53" d="M 3425 4513 
L 3425 3897 
Q 3066 4069 2747 4153 
Q 2428 4238 2131 4238 
Q 1616 4238 1336 4038 
Q 1056 3838 1056 3469 
Q 1056 3159 1242 3001 
Q 1428 2844 1947 2747 
L 2328 2669 
Q 3034 2534 3370 2195 
Q 3706 1856 3706 1288 
Q 3706 609 3251 259 
Q 2797 -91 1919 -91 
Q 1588 -91 1214 -16 
Q 841 59 441 206 
L 441 856 
Q 825 641 1194 531 
Q 1563 422 1919 422 
Q 2459 422 2753 634 
Q 3047 847 3047 1241 
Q 3047 1584 2836 1778 
Q 2625 1972 2144 2069 
L 1759 2144 
Q 1053 2284 737 2584 
Q 422 2884 422 3419 
Q 422 4038 858 4394 
Q 1294 4750 2059 4750 
Q 2388 4750 2728 4690 
Q 3069 4631 3425 4513 
z
" transform="scale(0.015625)"/>
      <path id="DejaVuSans-43" d="M 4122 4306 
L 4122 3641 
Q 3803 3938 3442 4084 
Q 3081 4231 2675 4231 
Q 1875 4231 1450 3742 
Q 1025 3253 1025 2328 
Q 1025 1406 1450 917 
Q 1875 428 2675 428 
Q 3081 428 3442 575 
Q 3803 722 4122 1019 
L 4122 359 
Q 3791 134 3420 21 
Q 3050 -91 2638 -91 
Q 1578 -91 968 557 
Q 359 1206 359 2328 
Q 359 3453 968 4101 
Q 1578 4750 2638 4750 
Q 3056 4750 3426 4639 
Q 3797 4528 4122 4306 
z
" transform="scale(0.015625)"/>
      <path id="DejaVuSans-46" d="M 628 4666 
L 3309 4666 
L 3309 4134 
L 1259 4134 
L 1259 2759 
L 3109 2759 
L 3109 2228 
L 1259 2228 
L 1259 0 
L 628 0 
L 628 4666 
z
" transform="scale(0.015625)"/>
      <path id="DejaVuSans-41" d="M 2188 4044 
L 1331 1722 
L 3047 1722 
L 2188 4044 
z
M 1831 4666 
L 2547 4666 
L 4325 0 
L 3669 0 
L 3244 1197 
L 1141 1197 
L 716 0 
L 50 0 
L 1831 4666 
z
" transform="scale(0.015625)"/>
     </defs>
     <use xlink:href="#DejaVuSans-53"/>
     <use xlink:href="#DejaVuSans-43" transform="translate(63.476562 0)"/>
     <use xlink:href="#DejaVuSans-46" transform="translate(133.300781 0)"/>
     <use xlink:href="#DejaVuSans-41" transform="translate(181.695312 0)"/>
     <use xlink:href="#DejaVuSans-20" transform="translate(250.103516 0)"/>
     <use xlink:href="#DejaVuSans-70" transform="translate(281.890625 0)"/>
     <use xlink:href="#DejaVuSans-72" transform="translate(345.367188 0)"/>
     <use xlink:href="#DejaVuSans-6f" transform="translate(384.230469 0)"/>
     <use xlink:href="#DejaVuSans-64" transform="translate(445.412109 0)"/>
     <use xlink:href="#DejaVuSans-75" transform="translate(508.888672 0)"/>
     <use xlink:href="#DejaVuSans-63" transform="translate(572.267578 0)"/>
     <use xlink:href="#DejaVuSans-65" transform="translate(627.248047 0)"/>
     <use xlink:href="#DejaVuSans-72" transform="translate(688.771484 0)"/>
     <use xlink:href="#DejaVuSans-73" transform="translate(729.884766 0)"/>
    </g>
   </g>
   <g id="text_5">
    <!-- Metabolites -->
    <g transform="translate(329.478808 74.81974) scale(0.1 -0.1)">
     <defs>
      <path id="DejaVuSans-Bold-6c" d="M 538 4863 
L 1656 4863 
L 1656 0 
L 538 0 
L 538 4863 
z
" transform="scale(0.015625)"/>
     </defs>
     <use xlink:href="#DejaVuSans-Bold-4d"/>
     <use xlink:href="#DejaVuSans-Bold-65" transform="translate(99.511719 0)"/>
     <use xlink:href="#DejaVuSans-Bold-74" transform="translate(167.333984 0)"/>
     <use xlink:href="#DejaVuSans-Bold-61" transform="translate(215.136719 0)"/>
     <use xlink:href="#DejaVuSans-Bold-62" transform="translate(282.617188 0)"/>
     <use xlink:href="#DejaVuSans-Bold-6f" transform="translate(354.199219 0)"/>
     <use xlink:href="#DejaVuSans-Bold-6c" transform="translate(422.900391 0)"/>
     <use xlink:href="#DejaVuSans-Bold-69" transform="translate(457.177734 0)"/>
     <use xlink:href="#DejaVuSans-Bold-74" transform="translate(491.455078 0)"/>
     <use xlink:href="#DejaVuSans-Bold-65" transform="translate(539.257812 0)"/>
     <use xlink:href="#DejaVuSans-Bold-73" transform="translate(607.080078 0)"/>
    </g>
   </g>
   <g id="text_6">
    <!-- butyric acid -->
    <g transform="translate(338.683339 88.466234) scale(0.082 -0.082)">
     <use xlink:href="#DejaVuSans-62"/>
     <use xlink:href="#DejaVuSans-75" transform="translate(63.476562 0)"/>
     <use xlink:href="#DejaVuSans-74" transform="translate(126.855469 0)"/>
     <use xlink:href="#DejaVuSans-79" transform="translate(166.064453 0)"/>
     <use xlink:href="#DejaVuSans-72" transform="translate(225.244141 0)"/>
     <use xlink:href="#DejaVuSans-69" transform="translate(266.357422 0)"/>
     <use xlink:href="#DejaVuSans-63" transform="translate(294.140625 0)"/>
     <use xlink:href="#DejaVuSans-20" transform="translate(349.121094 0)"/>
     <use xlink:href="#DejaVuSans-61" transform="translate(380.908203 0)"/>
     <use xlink:href="#DejaVuSans-63" transform="translate(442.1875 0)"/>
     <use xlink:href="#DejaVuSans-69" transform="translate(497.167969 0)"/>
     <use xlink:href="#DejaVuSans-64" transform="translate(524.951172 0)"/>
    </g>
    <!-- SCFAs -->
    <g transform="translate(350.418948 97.64844) scale(0.082 -0.082)">
     <use xlink:href="#DejaVuSans-53"/>
     <use xlink:href="#DejaVuSans-43" transform="translate(63.476562 0)"/>
     <use xlink:href="#DejaVuSans-46" transform="translate(133.300781 0)"/>
     <use xlink:href="#DejaVuSans-41" transform="translate(181.695312 0)"/>
     <use xlink:href="#DejaVuSans-73" transform="translate(250.103516 0)"/>
    </g>
   </g>
   <g id="text_7">
    <!-- Host programs -->
    <g transform="translate(419.37452 74.741615) scale(0.1 -0.1)">
     <defs>
      <path id="DejaVuSans-Bold-48" d="M 588 4666 
L 1791 4666 
L 1791 2888 
L 3566 2888 
L 3566 4666 
L 4769 4666 
L 4769 0 
L 3566 0 
L 3566 1978 
L 1791 1978 
L 1791 0 
L 588 0 
L 588 4666 
z
" transform="scale(0.015625)"/>
      <path id="DejaVuSans-Bold-67" d="M 2919 594 
Q 2688 288 2409 144 
Q 2131 0 1766 0 
Q 1125 0 706 504 
Q 288 1009 288 1791 
Q 288 2575 706 3076 
Q 1125 3578 1766 3578 
Q 2131 3578 2409 3434 
Q 2688 3291 2919 2981 
L 2919 3500 
L 4044 3500 
L 4044 353 
Q 4044 -491 3511 -936 
Q 2978 -1381 1966 -1381 
Q 1638 -1381 1331 -1331 
Q 1025 -1281 716 -1178 
L 716 -306 
Q 1009 -475 1290 -558 
Q 1572 -641 1856 -641 
Q 2406 -641 2662 -400 
Q 2919 -159 2919 353 
L 2919 594 
z
M 2181 2772 
Q 1834 2772 1640 2515 
Q 1447 2259 1447 1791 
Q 1447 1309 1634 1061 
Q 1822 813 2181 813 
Q 2531 813 2725 1069 
Q 2919 1325 2919 1791 
Q 2919 2259 2725 2515 
Q 2531 2772 2181 2772 
z
" transform="scale(0.015625)"/>
      <path id="DejaVuSans-Bold-6d" d="M 3781 2919 
Q 3994 3244 4286 3414 
Q 4578 3584 4928 3584 
Q 5531 3584 5847 3212 
Q 6163 2841 6163 2131 
L 6163 0 
L 5038 0 
L 5038 1825 
Q 5041 1866 5042 1909 
Q 5044 1953 5044 2034 
Q 5044 2406 4934 2573 
Q 4825 2741 4581 2741 
Q 4263 2741 4089 2478 
Q 3916 2216 3909 1719 
L 3909 0 
L 2784 0 
L 2784 1825 
Q 2784 2406 2684 2573 
Q 2584 2741 2328 2741 
Q 2006 2741 1831 2477 
Q 1656 2213 1656 1722 
L 1656 0 
L 531 0 
L 531 3500 
L 1656 3500 
L 1656 2988 
Q 1863 3284 2130 3434 
Q 2397 3584 2719 3584 
Q 3081 3584 3359 3409 
Q 3638 3234 3781 2919 
z
" transform="scale(0.015625)"/>
     </defs>
     <use xlink:href="#DejaVuSans-Bold-48"/>
     <use xlink:href="#DejaVuSans-Bold-6f" transform="translate(83.691406 0)"/>
     <use xlink:href="#DejaVuSans-Bold-73" transform="translate(152.392578 0)"/>
     <use xlink:href="#DejaVuSans-Bold-74" transform="translate(211.914062 0)"/>
     <use xlink:href="#DejaVuSans-Bold-20" transform="translate(259.716797 0)"/>
     <use xlink:href="#DejaVuSans-Bold-70" transform="translate(294.53125 0)"/>
     <use xlink:href="#DejaVuSans-Bold-72" transform="translate(366.113281 0)"/>
     <use xlink:href="#DejaVuSans-Bold-6f" transform="translate(415.429688 0)"/>
     <use xlink:href="#DejaVuSans-Bold-67" transform="translate(484.130859 0)"/>
     <use xlink:href="#DejaVuSans-Bold-72" transform="translate(555.712891 0)"/>
     <use xlink:href="#DejaVuSans-Bold-61" transform="translate(605.029297 0)"/>
     <use xlink:href="#DejaVuSans-Bold-6d" transform="translate(672.509766 0)"/>
     <use xlink:href="#DejaVuSans-Bold-73" transform="translate(776.708984 0)"/>
    </g>
   </g>
   <g id="text_8">
    <!-- liver inflammation -->
    <g transform="translate(423.783067 83.875131) scale(0.082 -0.082)">
     <defs>
      <path id="DejaVuSans-76" d="M 191 3500 
L 800 3500 
L 1894 563 
L 2988 3500 
L 3597 3500 
L 2284 0 
L 1503 0 
L 191 3500 
z
" transform="scale(0.015625)"/>
      <path id="DejaVuSans-6e" d="M 3513 2113 
L 3513 0 
L 2938 0 
L 2938 2094 
Q 2938 2591 2744 2837 
Q 2550 3084 2163 3084 
Q 1697 3084 1428 2787 
Q 1159 2491 1159 1978 
L 1159 0 
L 581 0 
L 581 3500 
L 1159 3500 
L 1159 2956 
Q 1366 3272 1645 3428 
Q 1925 3584 2291 3584 
Q 2894 3584 3203 3211 
Q 3513 2838 3513 2113 
z
" transform="scale(0.015625)"/>
      <path id="DejaVuSans-66" d="M 2375 4863 
L 2375 4384 
L 1825 4384 
Q 1516 4384 1395 4259 
Q 1275 4134 1275 3809 
L 1275 3500 
L 2222 3500 
L 2222 3053 
L 1275 3053 
L 1275 0 
L 697 0 
L 697 3053 
L 147 3053 
L 147 3500 
L 697 3500 
L 697 3744 
Q 697 4328 969 4595 
Q 1241 4863 1831 4863 
L 2375 4863 
z
" transform="scale(0.015625)"/>
     </defs>
     <use xlink:href="#DejaVuSans-6c"/>
     <use xlink:href="#DejaVuSans-69" transform="translate(27.783203 0)"/>
     <use xlink:href="#DejaVuSans-76" transform="translate(55.566406 0)"/>
     <use xlink:href="#DejaVuSans-65" transform="translate(114.746094 0)"/>
     <use xlink:href="#DejaVuSans-72" transform="translate(176.269531 0)"/>
     <use xlink:href="#DejaVuSans-20" transform="translate(217.382812 0)"/>
     <use xlink:href="#DejaVuSans-69" transform="translate(249.169922 0)"/>
     <use xlink:href="#DejaVuSans-6e" transform="translate(276.953125 0)"/>
     <use xlink:href="#DejaVuSans-66" transform="translate(340.332031 0)"/>
     <use xlink:href="#DejaVuSans-6c" transform="translate(375.537109 0)"/>
     <use xlink:href="#DejaVuSans-61" transform="translate(403.320312 0)"/>
     <use xlink:href="#DejaVuSans-6d" transform="translate(464.599609 0)"/>
     <use xlink:href="#DejaVuSans-6d" transform="translate(562.011719 0)"/>
     <use xlink:href="#DejaVuSans-61" transform="translate(659.423828 0)"/>
     <use xlink:href="#DejaVuSans-74" transform="translate(720.703125 0)"/>
     <use xlink:href="#DejaVuSans-69" transform="translate(759.912109 0)"/>
     <use xlink:href="#DejaVuSans-6f" transform="translate(787.695312 0)"/>
     <use xlink:href="#DejaVuSans-6e" transform="translate(848.876953 0)"/>
    </g>
    <!-- barrier integrity -->
    <g transform="translate(428.790833 93.057337) scale(0.082 -0.082)">
     <use xlink:href="#DejaVuSans-62"/>
     <use xlink:href="#DejaVuSans-61" transform="translate(63.476562 0)"/>
     <use xlink:href="#DejaVuSans-72" transform="translate(124.755859 0)"/>
     <use xlink:href="#DejaVuSans-72" transform="translate(164.119141 0)"/>
     <use xlink:href="#DejaVuSans-69" transform="translate(205.232422 0)"/>
     <use xlink:href="#DejaVuSans-65" transform="translate(233.015625 0)"/>
     <use xlink:href="#DejaVuSans-72" transform="translate(294.539062 0)"/>
     <use xlink:href="#DejaVuSans-20" transform="translate(335.652344 0)"/>
     <use xlink:href="#DejaVuSans-69" transform="translate(367.439453 0)"/>
     <use xlink:href="#DejaVuSans-6e" transform="translate(395.222656 0)"/>
     <use xlink:href="#DejaVuSans-74" transform="translate(458.601562 0)"/>
     <use xlink:href="#DejaVuSans-65" transform="translate(497.810547 0)"/>
     <use xlink:href="#DejaVuSans-67" transform="translate(559.333984 0)"/>
     <use xlink:href="#DejaVuSans-72" transform="translate(622.810547 0)"/>
     <use xlink:href="#DejaVuSans-69" transform="translate(663.923828 0)"/>
     <use xlink:href="#DejaVuSans-74" transform="translate(691.707031 0)"/>
     <use xlink:href="#DejaVuSans-79" transform="translate(730.916016 0)"/>
    </g>
    <!-- lipid deposition -->
    <g transform="translate(429.893348 102.239543) scale(0.082 -0.082)">
     <use xlink:href="#DejaVuSans-6c"/>
     <use xlink:href="#DejaVuSans-69" transform="translate(27.783203 0)"/>
     <use xlink:href="#DejaVuSans-70" transform="translate(55.566406 0)"/>
     <use xlink:href="#DejaVuSans-69" transform="translate(119.042969 0)"/>
     <use xlink:href="#DejaVuSans-64" transform="translate(146.826172 0)"/>
     <use xlink:href="#DejaVuSans-20" transform="translate(210.302734 0)"/>
     <use xlink:href="#DejaVuSans-64" transform="translate(242.089844 0)"/>
     <use xlink:href="#DejaVuSans-65" transform="translate(305.566406 0)"/>
     <use xlink:href="#DejaVuSans-70" transform="translate(367.089844 0)"/>
     <use xlink:href="#DejaVuSans-6f" transform="translate(430.566406 0)"/>
     <use xlink:href="#DejaVuSans-73" transform="translate(491.748047 0)"/>
     <use xlink:href="#DejaVuSans-69" transform="translate(543.847656 0)"/>
     <use xlink:href="#DejaVuSans-74" transform="translate(571.630859 0)"/>
     <use xlink:href="#DejaVuSans-69" transform="translate(610.839844 0)"/>
     <use xlink:href="#DejaVuSans-6f" transform="translate(638.623047 0)"/>
     <use xlink:href="#DejaVuSans-6e" transform="translate(699.804688 0)"/>
    </g>
   </g>
   <g id="text_9">
    <!-- modulates -->
    <g style="fill: #37474f" transform="translate(192.039086 75.797531) scale(0.075 -0.075)">
     <use xlink:href="#DejaVuSans-6d"/>
     <use xlink:href="#DejaVuSans-6f" transform="translate(97.412109 0)"/>
     <use xlink:href="#DejaVuSans-64" transform="translate(158.59375 0)"/>
     <use xlink:href="#DejaVuSans-75" transform="translate(222.070312 0)"/>
     <use xlink:href="#DejaVuSans-6c" transform="translate(285.449219 0)"/>
     <use xlink:href="#DejaVuSans-61" transform="translate(313.232422 0)"/>
     <use xlink:href="#DejaVuSans-74" transform="translate(374.511719 0)"/>
     <use xlink:href="#DejaVuSans-65" transform="translate(413.720703 0)"/>
     <use xlink:href="#DejaVuSans-73" transform="translate(475.244141 0)"/>
    </g>
   </g>
   <g id="text_10">
    <!-- produces -->
    <g style="fill: #37474f" transform="translate(297.552977 75.797531) scale(0.075 -0.075)">
     <use xlink:href="#DejaVuSans-70"/>
     <use xlink:href="#DejaVuSans-72" transform="translate(63.476562 0)"/>
     <use xlink:href="#DejaVuSans-6f" transform="translate(102.339844 0)"/>
     <use xlink:href="#DejaVuSans-64" transform="translate(163.521484 0)"/>
     <use xlink:href="#DejaVuSans-75" transform="translate(226.998047 0)"/>
     <use xlink:href="#DejaVuSans-63" transform="translate(290.376953 0)"/>
     <use xlink:href="#DejaVuSans-65" transform="translate(345.357422 0)"/>
     <use xlink:href="#DejaVuSans-73" transform="translate(406.880859 0)"/>
    </g>
   </g>
   <g id="text_11">
    <!-- associates with -->
    <g style="fill: #37474f" transform="translate(382.073584 75.797531) scale(0.075 -0.075)">
     <use xlink:href="#DejaVuSans-61"/>
     <use xlink:href="#DejaVuSans-73" transform="translate(61.279297 0)"/>
     <use xlink:href="#DejaVuSans-73" transform="translate(113.378906 0)"/>
     <use xlink:href="#DejaVuSans-6f" transform="translate(165.478516 0)"/>
     <use xlink:href="#DejaVuSans-63" transform="translate(226.660156 0)"/>
     <use xlink:href="#DejaVuSans-69" transform="translate(281.640625 0)"/>
     <use xlink:href="#DejaVuSans-61" transform="translate(309.423828 0)"/>
     <use xlink:href="#DejaVuSans-74" transform="translate(370.703125 0)"/>
     <use xlink:href="#DejaVuSans-65" transform="translate(409.912109 0)"/>
     <use xlink:href="#DejaVuSans-73" transform="translate(471.435547 0)"/>
     <use xlink:href="#DejaVuSans-20" transform="translate(523.535156 0)"/>
     <use xlink:href="#DejaVuSans-77" transform="translate(555.322266 0)"/>
     <use xlink:href="#DejaVuSans-69" transform="translate(637.109375 0)"/>
     <use xlink:href="#DejaVuSans-74" transform="translate(664.892578 0)"/>
     <use xlink:href="#DejaVuSans-68" transform="translate(704.101562 0)"/>
    </g>
   </g>
   <g id="text_12">
    <!-- KG query case study: tea polysaccharides -&gt; microbiota/metabolites -&gt; host phenotypes -->
    <g transform="translate(37.320039 28.48896) scale(0.12 -0.12)">
     <defs>
      <path id="DejaVuSans-Bold-4b" d="M 588 4666 
L 1791 4666 
L 1791 2963 
L 3525 4666 
L 4922 4666 
L 2675 2456 
L 5153 0 
L 3647 0 
L 1791 1838 
L 1791 0 
L 588 0 
L 588 4666 
z
" transform="scale(0.015625)"/>
      <path id="DejaVuSans-Bold-47" d="M 4781 347 
Q 4331 128 3847 18 
Q 3363 -91 2847 -91 
Q 1681 -91 1000 561 
Q 319 1213 319 2328 
Q 319 3456 1012 4103 
Q 1706 4750 2913 4750 
Q 3378 4750 3804 4662 
Q 4231 4575 4609 4403 
L 4609 3438 
Q 4219 3659 3833 3768 
Q 3447 3878 3059 3878 
Q 2341 3878 1952 3476 
Q 1563 3075 1563 2328 
Q 1563 1588 1938 1184 
Q 2313 781 3003 781 
Q 3191 781 3352 804 
Q 3513 828 3641 878 
L 3641 1784 
L 2906 1784 
L 2906 2591 
L 4781 2591 
L 4781 347 
z
" transform="scale(0.015625)"/>
      <path id="DejaVuSans-Bold-71" d="M 2181 2772 
Q 1825 2772 1636 2509 
Q 1447 2247 1447 1747 
Q 1447 1247 1636 984 
Q 1825 722 2181 722 
Q 2541 722 2730 984 
Q 2919 1247 2919 1747 
Q 2919 2247 2730 2509 
Q 2541 2772 2181 2772 
z
M 2919 506 
Q 2688 197 2409 53 
Q 2131 -91 1766 -91 
Q 1119 -91 703 423 
Q 288 938 288 1747 
Q 288 2556 703 3067 
Q 1119 3578 1766 3578 
Q 2131 3578 2409 3434 
Q 2688 3291 2919 2981 
L 2919 3500 
L 4044 3500 
L 4044 -1331 
L 2919 -1331 
L 2919 506 
z
" transform="scale(0.015625)"/>
      <path id="DejaVuSans-Bold-79" d="M 78 3500 
L 1197 3500 
L 2138 1125 
L 2938 3500 
L 4056 3500 
L 2584 -331 
Q 2363 -916 2067 -1148 
Q 1772 -1381 1288 -1381 
L 641 -1381 
L 641 -647 
L 991 -647 
Q 1275 -647 1404 -556 
Q 1534 -466 1606 -231 
L 1638 -134 
L 78 3500 
z
" transform="scale(0.015625)"/>
      <path id="DejaVuSans-Bold-64" d="M 2919 2988 
L 2919 4863 
L 4044 4863 
L 4044 0 
L 2919 0 
L 2919 506 
Q 2688 197 2409 53 
Q 2131 -91 1766 -91 
Q 1119 -91 703 423 
Q 288 938 288 1747 
Q 288 2556 703 3070 
Q 1119 3584 1766 3584 
Q 2128 3584 2408 3439 
Q 2688 3294 2919 2988 
z
M 2181 722 
Q 2541 722 2730 984 
Q 2919 1247 2919 1747 
Q 2919 2247 2730 2509 
Q 2541 2772 2181 2772 
Q 1825 2772 1636 2509 
Q 1447 2247 1447 1747 
Q 1447 1247 1636 984 
Q 1825 722 2181 722 
z
" transform="scale(0.015625)"/>
      <path id="DejaVuSans-Bold-3a" d="M 716 3500 
L 1844 3500 
L 1844 2291 
L 716 2291 
L 716 3500 
z
M 716 1209 
L 1844 1209 
L 1844 0 
L 716 0 
L 716 1209 
z
" transform="scale(0.015625)"/>
      <path id="DejaVuSans-Bold-68" d="M 4056 2131 
L 4056 0 
L 2931 0 
L 2931 347 
L 2931 1625 
Q 2931 2084 2911 2256 
Q 2891 2428 2841 2509 
Q 2775 2619 2662 2680 
Q 2550 2741 2406 2741 
Q 2056 2741 1856 2470 
Q 1656 2200 1656 1722 
L 1656 0 
L 538 0 
L 538 4863 
L 1656 4863 
L 1656 2988 
Q 1909 3294 2193 3439 
Q 2478 3584 2822 3584 
Q 3428 3584 3742 3212 
Q 4056 2841 4056 2131 
z
" transform="scale(0.015625)"/>
      <path id="DejaVuSans-Bold-2d" d="M 347 2297 
L 2309 2297 
L 2309 1388 
L 347 1388 
L 347 2297 
z
" transform="scale(0.015625)"/>
      <path id="DejaVuSans-Bold-3e" d="M 678 3041 
L 678 3822 
L 4684 2375 
L 4684 1638 
L 678 191 
L 678 972 
L 3694 2003 
L 678 3041 
z
" transform="scale(0.015625)"/>
      <path id="DejaVuSans-Bold-2f" d="M 1644 4666 
L 2338 4666 
L 691 -594 
L 0 -594 
L 1644 4666 
z
" transform="scale(0.015625)"/>
      <path id="DejaVuSans-Bold-6e" d="M 4056 2131 
L 4056 0 
L 2931 0 
L 2931 347 
L 2931 1631 
Q 2931 2084 2911 2256 
Q 2891 2428 2841 2509 
Q 2775 2619 2662 2680 
Q 2550 2741 2406 2741 
Q 2056 2741 1856 2470 
Q 1656 2200 1656 1722 
L 1656 0 
L 538 0 
L 538 3500 
L 1656 3500 
L 1656 2988 
Q 1909 3294 2193 3439 
Q 2478 3584 2822 3584 
Q 3428 3584 3742 3212 
Q 4056 2841 4056 2131 
z
" transform="scale(0.015625)"/>
     </defs>
     <use xlink:href="#DejaVuSans-Bold-4b"/>
     <use xlink:href="#DejaVuSans-Bold-47" transform="translate(77.490234 0)"/>
     <use xlink:href="#DejaVuSans-Bold-20" transform="translate(159.570312 0)"/>
     <use xlink:href="#DejaVuSans-Bold-71" transform="translate(194.384766 0)"/>
     <use xlink:href="#DejaVuSans-Bold-75" transform="translate(265.966797 0)"/>
     <use xlink:href="#DejaVuSans-Bold-65" transform="translate(337.158203 0)"/>
     <use xlink:href="#DejaVuSans-Bold-72" transform="translate(404.980469 0)"/>
     <use xlink:href="#DejaVuSans-Bold-79" transform="translate(454.296875 0)"/>
     <use xlink:href="#DejaVuSans-Bold-20" transform="translate(519.482422 0)"/>
     <use xlink:href="#DejaVuSans-Bold-63" transform="translate(554.296875 0)"/>
     <use xlink:href="#DejaVuSans-Bold-61" transform="translate(613.574219 0)"/>
     <use xlink:href="#DejaVuSans-Bold-73" transform="translate(681.054688 0)"/>
     <use xlink:href="#DejaVuSans-Bold-65" transform="translate(740.576172 0)"/>
     <use xlink:href="#DejaVuSans-Bold-20" transform="translate(808.398438 0)"/>
     <use xlink:href="#DejaVuSans-Bold-73" transform="translate(843.212891 0)"/>
     <use xlink:href="#DejaVuSans-Bold-74" transform="translate(902.734375 0)"/>
     <use xlink:href="#DejaVuSans-Bold-75" transform="translate(950.537109 0)"/>
     <use xlink:href="#DejaVuSans-Bold-64" transform="translate(1021.728516 0)"/>
     <use xlink:href="#DejaVuSans-Bold-79" transform="translate(1093.310547 0)"/>
     <use xlink:href="#DejaVuSans-Bold-3a" transform="translate(1158.496094 0)"/>
     <use xlink:href="#DejaVuSans-Bold-20" transform="translate(1198.486328 0)"/>
     <use xlink:href="#DejaVuSans-Bold-74" transform="translate(1233.300781 0)"/>
     <use xlink:href="#DejaVuSans-Bold-65" transform="translate(1281.103516 0)"/>
     <use xlink:href="#DejaVuSans-Bold-61" transform="translate(1348.925781 0)"/>
     <use xlink:href="#DejaVuSans-Bold-20" transform="translate(1416.40625 0)"/>
     <use xlink:href="#DejaVuSans-Bold-70" transform="translate(1451.220703 0)"/>
     <use xlink:href="#DejaVuSans-Bold-6f" transform="translate(1522.802734 0)"/>
     <use xlink:href="#DejaVuSans-Bold-6c" transform="translate(1591.503906 0)"/>
     <use xlink:href="#DejaVuSans-Bold-79" transform="translate(1625.78125 0)"/>
     <use xlink:href="#DejaVuSans-Bold-73" transform="translate(1690.966797 0)"/>
     <use xlink:href="#DejaVuSans-Bold-61" transform="translate(1750.488281 0)"/>
     <use xlink:href="#DejaVuSans-Bold-63" transform="translate(1817.96875 0)"/>
     <use xlink:href="#DejaVuSans-Bold-63" transform="translate(1877.246094 0)"/>
     <use xlink:href="#DejaVuSans-Bold-68" transform="translate(1936.523438 0)"/>
     <use xlink:href="#DejaVuSans-Bold-61" transform="translate(2007.714844 0)"/>
     <use xlink:href="#DejaVuSans-Bold-72" transform="translate(2075.195312 0)"/>
     <use xlink:href="#DejaVuSans-Bold-69" transform="translate(2124.511719 0)"/>
     <use xlink:href="#DejaVuSans-Bold-64" transform="translate(2158.789062 0)"/>
     <use xlink:href="#DejaVuSans-Bold-65" transform="translate(2230.371094 0)"/>
     <use xlink:href="#DejaVuSans-Bold-73" transform="translate(2298.193359 0)"/>
     <use xlink:href="#DejaVuSans-Bold-20" transform="translate(2357.714844 0)"/>
     <use xlink:href="#DejaVuSans-Bold-2d" transform="translate(2392.529297 0)"/>
     <use xlink:href="#DejaVuSans-Bold-3e" transform="translate(2434.033203 0)"/>
     <use xlink:href="#DejaVuSans-Bold-20" transform="translate(2517.822266 0)"/>
     <use xlink:href="#DejaVuSans-Bold-6d" transform="translate(2552.636719 0)"/>
     <use xlink:href="#DejaVuSans-Bold-69" transform="translate(2656.835938 0)"/>
     <use xlink:href="#DejaVuSans-Bold-63" transform="translate(2691.113281 0)"/>
     <use xlink:href="#DejaVuSans-Bold-72" transform="translate(2750.390625 0)"/>
     <use xlink:href="#DejaVuSans-Bold-6f" transform="translate(2799.707031 0)"/>
     <use xlink:href="#DejaVuSans-Bold-62" transform="translate(2868.408203 0)"/>
     <use xlink:href="#DejaVuSans-Bold-69" transform="translate(2939.990234 0)"/>
     <use xlink:href="#DejaVuSans-Bold-6f" transform="translate(2974.267578 0)"/>
     <use xlink:href="#DejaVuSans-Bold-74" transform="translate(3042.96875 0)"/>
     <use xlink:href="#DejaVuSans-Bold-61" transform="translate(3090.771484 0)"/>
     <use xlink:href="#DejaVuSans-Bold-2f" transform="translate(3158.251953 0)"/>
     <use xlink:href="#DejaVuSans-Bold-6d" transform="translate(3194.775391 0)"/>
     <use xlink:href="#DejaVuSans-Bold-65" transform="translate(3298.974609 0)"/>
     <use xlink:href="#DejaVuSans-Bold-74" transform="translate(3366.796875 0)"/>
     <use xlink:href="#DejaVuSans-Bold-61" transform="translate(3414.599609 0)"/>
     <use xlink:href="#DejaVuSans-Bold-62" transform="translate(3482.080078 0)"/>
     <use xlink:href="#DejaVuSans-Bold-6f" transform="translate(3553.662109 0)"/>
     <use xlink:href="#DejaVuSans-Bold-6c" transform="translate(3622.363281 0)"/>
     <use xlink:href="#DejaVuSans-Bold-69" transform="translate(3656.640625 0)"/>
     <use xlink:href="#DejaVuSans-Bold-74" transform="translate(3690.917969 0)"/>
     <use xlink:href="#DejaVuSans-Bold-65" transform="translate(3738.720703 0)"/>
     <use xlink:href="#DejaVuSans-Bold-73" transform="translate(3806.542969 0)"/>
     <use xlink:href="#DejaVuSans-Bold-20" transform="translate(3866.064453 0)"/>
     <use xlink:href="#DejaVuSans-Bold-2d" transform="translate(3900.878906 0)"/>
     <use xlink:href="#DejaVuSans-Bold-3e" transform="translate(3942.382812 0)"/>
     <use xlink:href="#DejaVuSans-Bold-20" transform="translate(4026.171875 0)"/>
     <use xlink:href="#DejaVuSans-Bold-68" transform="translate(4060.986328 0)"/>
     <use xlink:href="#DejaVuSans-Bold-6f" transform="translate(4132.177734 0)"/>
     <use xlink:href="#DejaVuSans-Bold-73" transform="translate(4200.878906 0)"/>
     <use xlink:href="#DejaVuSans-Bold-74" transform="translate(4260.400391 0)"/>
     <use xlink:href="#DejaVuSans-Bold-20" transform="translate(4308.203125 0)"/>
     <use xlink:href="#DejaVuSans-Bold-70" transform="translate(4343.017578 0)"/>
     <use xlink:href="#DejaVuSans-Bold-68" transform="translate(4414.599609 0)"/>
     <use xlink:href="#DejaVuSans-Bold-65" transform="translate(4485.791016 0)"/>
     <use xlink:href="#DejaVuSans-Bold-6e" transform="translate(4553.613281 0)"/>
     <use xlink:href="#DejaVuSans-Bold-6f" transform="translate(4624.804688 0)"/>
     <use xlink:href="#DejaVuSans-Bold-74" transform="translate(4693.505859 0)"/>
     <use xlink:href="#DejaVuSans-Bold-79" transform="translate(4741.308594 0)"/>
     <use xlink:href="#DejaVuSans-Bold-70" transform="translate(4806.494141 0)"/>
     <use xlink:href="#DejaVuSans-Bold-65" transform="translate(4878.076172 0)"/>
     <use xlink:href="#DejaVuSans-Bold-73" transform="translate(4945.898438 0)"/>
    </g>
   </g>
   <g id="text_13">
    <!-- Query filter: component_group contains tea polysaccharides; microbiome/metabolite/host phenotype fields non-empty; evidence and uncertainty retained. -->
    <g style="fill: #37474f" transform="translate(7.2 152.67456) scale(0.085 -0.085)">
     <defs>
      <path id="DejaVuSans-51" d="M 2522 4238 
Q 1834 4238 1429 3725 
Q 1025 3213 1025 2328 
Q 1025 1447 1429 934 
Q 1834 422 2522 422 
Q 3209 422 3611 934 
Q 4013 1447 4013 2328 
Q 4013 3213 3611 3725 
Q 3209 4238 2522 4238 
z
M 3406 84 
L 4238 -825 
L 3475 -825 
L 2784 -78 
Q 2681 -84 2626 -87 
Q 2572 -91 2522 -91 
Q 1538 -91 948 567 
Q 359 1225 359 2328 
Q 359 3434 948 4092 
Q 1538 4750 2522 4750 
Q 3503 4750 4090 4092 
Q 4678 3434 4678 2328 
Q 4678 1516 4351 937 
Q 4025 359 3406 84 
z
" transform="scale(0.015625)"/>
      <path id="DejaVuSans-3a" d="M 750 794 
L 1409 794 
L 1409 0 
L 750 0 
L 750 794 
z
M 750 3309 
L 1409 3309 
L 1409 2516 
L 750 2516 
L 750 3309 
z
" transform="scale(0.015625)"/>
      <path id="DejaVuSans-5f" d="M 3263 -1063 
L 3263 -1509 
L -63 -1509 
L -63 -1063 
L 3263 -1063 
z
" transform="scale(0.015625)"/>
      <path id="DejaVuSans-3b" d="M 750 3309 
L 1409 3309 
L 1409 2516 
L 750 2516 
L 750 3309 
z
M 750 794 
L 1409 794 
L 1409 256 
L 897 -744 
L 494 -744 
L 750 256 
L 750 794 
z
" transform="scale(0.015625)"/>
      <path id="DejaVuSans-2d" d="M 313 2009 
L 1997 2009 
L 1997 1497 
L 313 1497 
L 313 2009 
z
" transform="scale(0.015625)"/>
      <path id="DejaVuSans-2e" d="M 684 794 
L 1344 794 
L 1344 0 
L 684 0 
L 684 794 
z
" transform="scale(0.015625)"/>
     </defs>
     <use xlink:href="#DejaVuSans-51"/>
     <use xlink:href="#DejaVuSans-75" transform="translate(78.710938 0)"/>
     <use xlink:href="#DejaVuSans-65" transform="translate(142.089844 0)"/>
     <use xlink:href="#DejaVuSans-72" transform="translate(203.613281 0)"/>
     <use xlink:href="#DejaVuSans-79" transform="translate(244.726562 0)"/>
     <use xlink:href="#DejaVuSans-20" transform="translate(303.90625 0)"/>
     <use xlink:href="#DejaVuSans-66" transform="translate(335.693359 0)"/>
     <use xlink:href="#DejaVuSans-69" transform="translate(370.898438 0)"/>
     <use xlink:href="#DejaVuSans-6c" transform="translate(398.681641 0)"/>
     <use xlink:href="#DejaVuSans-74" transform="translate(426.464844 0)"/>
     <use xlink:href="#DejaVuSans-65" transform="translate(465.673828 0)"/>
     <use xlink:href="#DejaVuSans-72" transform="translate(527.197266 0)"/>
     <use xlink:href="#DejaVuSans-3a" transform="translate(566.560547 0)"/>
     <use xlink:href="#DejaVuSans-20" transform="translate(600.251953 0)"/>
     <use xlink:href="#DejaVuSans-63" transform="translate(632.039062 0)"/>
     <use xlink:href="#DejaVuSans-6f" transform="translate(687.019531 0)"/>
     <use xlink:href="#DejaVuSans-6d" transform="translate(748.201172 0)"/>
     <use xlink:href="#DejaVuSans-70" transform="translate(845.613281 0)"/>
     <use xlink:href="#DejaVuSans-6f" transform="translate(909.089844 0)"/>
     <use xlink:href="#DejaVuSans-6e" transform="translate(970.271484 0)"/>
     <use xlink:href="#DejaVuSans-65" transform="translate(1033.650391 0)"/>
     <use xlink:href="#DejaVuSans-6e" transform="translate(1095.173828 0)"/>
     <use xlink:href="#DejaVuSans-74" transform="translate(1158.552734 0)"/>
     <use xlink:href="#DejaVuSans-5f" transform="translate(1197.761719 0)"/>
     <use xlink:href="#DejaVuSans-67" transform="translate(1247.761719 0)"/>
     <use xlink:href="#DejaVuSans-72" transform="translate(1311.238281 0)"/>
     <use xlink:href="#DejaVuSans-6f" transform="translate(1350.101562 0)"/>
     <use xlink:href="#DejaVuSans-75" transform="translate(1411.283203 0)"/>
     <use xlink:href="#DejaVuSans-70" transform="translate(1474.662109 0)"/>
     <use xlink:href="#DejaVuSans-20" transform="translate(1538.138672 0)"/>
     <use xlink:href="#DejaVuSans-63" transform="translate(1569.925781 0)"/>
     <use xlink:href="#DejaVuSans-6f" transform="translate(1624.90625 0)"/>
     <use xlink:href="#DejaVuSans-6e" transform="translate(1686.087891 0)"/>
     <use xlink:href="#DejaVuSans-74" transform="translate(1749.466797 0)"/>
     <use xlink:href="#DejaVuSans-61" transform="translate(1788.675781 0)"/>
     <use xlink:href="#DejaVuSans-69" transform="translate(1849.955078 0)"/>
     <use xlink:href="#DejaVuSans-6e" transform="translate(1877.738281 0)"/>
     <use xlink:href="#DejaVuSans-73" transform="translate(1941.117188 0)"/>
     <use xlink:href="#DejaVuSans-20" transform="translate(1993.216797 0)"/>
     <use xlink:href="#DejaVuSans-74" transform="translate(2025.003906 0)"/>
     <use xlink:href="#DejaVuSans-65" transform="translate(2064.212891 0)"/>
     <use xlink:href="#DejaVuSans-61" transform="translate(2125.736328 0)"/>
     <use xlink:href="#DejaVuSans-20" transform="translate(2187.015625 0)"/>
     <use xlink:href="#DejaVuSans-70" transform="translate(2218.802734 0)"/>
     <use xlink:href="#DejaVuSans-6f" transform="translate(2282.279297 0)"/>
     <use xlink:href="#DejaVuSans-6c" transform="translate(2343.460938 0)"/>
     <use xlink:href="#DejaVuSans-79" transform="translate(2371.244141 0)"/>
     <use xlink:href="#DejaVuSans-73" transform="translate(2430.423828 0)"/>
     <use xlink:href="#DejaVuSans-61" transform="translate(2482.523438 0)"/>
     <use xlink:href="#DejaVuSans-63" transform="translate(2543.802734 0)"/>
     <use xlink:href="#DejaVuSans-63" transform="translate(2598.783203 0)"/>
     <use xlink:href="#DejaVuSans-68" transform="translate(2653.763672 0)"/>
     <use xlink:href="#DejaVuSans-61" transform="translate(2717.142578 0)"/>
     <use xlink:href="#DejaVuSans-72" transform="translate(2778.421875 0)"/>
     <use xlink:href="#DejaVuSans-69" transform="translate(2819.535156 0)"/>
     <use xlink:href="#DejaVuSans-64" transform="translate(2847.318359 0)"/>
     <use xlink:href="#DejaVuSans-65" transform="translate(2910.794922 0)"/>
     <use xlink:href="#DejaVuSans-73" transform="translate(2972.318359 0)"/>
     <use xlink:href="#DejaVuSans-3b" transform="translate(3024.417969 0)"/>
     <use xlink:href="#DejaVuSans-20" transform="translate(3058.109375 0)"/>
     <use xlink:href="#DejaVuSans-6d" transform="translate(3089.896484 0)"/>
     <use xlink:href="#DejaVuSans-69" transform="translate(3187.308594 0)"/>
     <use xlink:href="#DejaVuSans-63" transform="translate(3215.091797 0)"/>
     <use xlink:href="#DejaVuSans-72" transform="translate(3270.072266 0)"/>
     <use xlink:href="#DejaVuSans-6f" transform="translate(3308.935547 0)"/>
     <use xlink:href="#DejaVuSans-62" transform="translate(3370.117188 0)"/>
     <use xlink:href="#DejaVuSans-69" transform="translate(3433.59375 0)"/>
     <use xlink:href="#DejaVuSans-6f" transform="translate(3461.376953 0)"/>
     <use xlink:href="#DejaVuSans-6d" transform="translate(3522.558594 0)"/>
     <use xlink:href="#DejaVuSans-65" transform="translate(3619.970703 0)"/>
     <use xlink:href="#DejaVuSans-2f" transform="translate(3681.494141 0)"/>
     <use xlink:href="#DejaVuSans-6d" transform="translate(3715.185547 0)"/>
     <use xlink:href="#DejaVuSans-65" transform="translate(3812.597656 0)"/>
     <use xlink:href="#DejaVuSans-74" transform="translate(3874.121094 0)"/>
     <use xlink:href="#DejaVuSans-61" transform="translate(3913.330078 0)"/>
     <use xlink:href="#DejaVuSans-62" transform="translate(3974.609375 0)"/>
     <use xlink:href="#DejaVuSans-6f" transform="translate(4038.085938 0)"/>
     <use xlink:href="#DejaVuSans-6c" transform="translate(4099.267578 0)"/>
     <use xlink:href="#DejaVuSans-69" transform="translate(4127.050781 0)"/>
     <use xlink:href="#DejaVuSans-74" transform="translate(4154.833984 0)"/>
     <use xlink:href="#DejaVuSans-65" transform="translate(4194.042969 0)"/>
     <use xlink:href="#DejaVuSans-2f" transform="translate(4255.566406 0)"/>
     <use xlink:href="#DejaVuSans-68" transform="translate(4289.257812 0)"/>
     <use xlink:href="#DejaVuSans-6f" transform="translate(4352.636719 0)"/>
     <use xlink:href="#DejaVuSans-73" transform="translate(4413.818359 0)"/>
     <use xlink:href="#DejaVuSans-74" transform="translate(4465.917969 0)"/>
     <use xlink:href="#DejaVuSans-20" transform="translate(4505.126953 0)"/>
     <use xlink:href="#DejaVuSans-70" transform="translate(4536.914062 0)"/>
     <use xlink:href="#DejaVuSans-68" transform="translate(4600.390625 0)"/>
     <use xlink:href="#DejaVuSans-65" transform="translate(4663.769531 0)"/>
     <use xlink:href="#DejaVuSans-6e" transform="translate(4725.292969 0)"/>
     <use xlink:href="#DejaVuSans-6f" transform="translate(4788.671875 0)"/>
     <use xlink:href="#DejaVuSans-74" transform="translate(4849.853516 0)"/>
     <use xlink:href="#DejaVuSans-79" transform="translate(4889.0625 0)"/>
     <use xlink:href="#DejaVuSans-70" transform="translate(4948.242188 0)"/>
     <use xlink:href="#DejaVuSans-65" transform="translate(5011.71875 0)"/>
     <use xlink:href="#DejaVuSans-20" transform="translate(5073.242188 0)"/>
     <use xlink:href="#DejaVuSans-66" transform="translate(5105.029297 0)"/>
     <use xlink:href="#DejaVuSans-69" transform="translate(5140.234375 0)"/>
     <use xlink:href="#DejaVuSans-65" transform="translate(5168.017578 0)"/>
     <use xlink:href="#DejaVuSans-6c" transform="translate(5229.541016 0)"/>
     <use xlink:href="#DejaVuSans-64" transform="translate(5257.324219 0)"/>
     <use xlink:href="#DejaVuSans-73" transform="translate(5320.800781 0)"/>
     <use xlink:href="#DejaVuSans-20" transform="translate(5372.900391 0)"/>
     <use xlink:href="#DejaVuSans-6e" transform="translate(5404.6875 0)"/>
     <use xlink:href="#DejaVuSans-6f" transform="translate(5468.066406 0)"/>
     <use xlink:href="#DejaVuSans-6e" transform="translate(5529.248047 0)"/>
     <use xlink:href="#DejaVuSans-2d" transform="translate(5592.626953 0)"/>
     <use xlink:href="#DejaVuSans-65" transform="translate(5628.710938 0)"/>
     <use xlink:href="#DejaVuSans-6d" transform="translate(5690.234375 0)"/>
     <use xlink:href="#DejaVuSans-70" transform="translate(5787.646484 0)"/>
     <use xlink:href="#DejaVuSans-74" transform="translate(5851.123047 0)"/>
     <use xlink:href="#DejaVuSans-79" transform="translate(5890.332031 0)"/>
     <use xlink:href="#DejaVuSans-3b" transform="translate(5949.511719 0)"/>
     <use xlink:href="#DejaVuSans-20" transform="translate(5983.203125 0)"/>
     <use xlink:href="#DejaVuSans-65" transform="translate(6014.990234 0)"/>
     <use xlink:href="#DejaVuSans-76" transform="translate(6076.513672 0)"/>
     <use xlink:href="#DejaVuSans-69" transform="translate(6135.693359 0)"/>
     <use xlink:href="#DejaVuSans-64" transform="translate(6163.476562 0)"/>
     <use xlink:href="#DejaVuSans-65" transform="translate(6226.953125 0)"/>
     <use xlink:href="#DejaVuSans-6e" transform="translate(6288.476562 0)"/>
     <use xlink:href="#DejaVuSans-63" transform="translate(6351.855469 0)"/>
     <use xlink:href="#DejaVuSans-65" transform="translate(6406.835938 0)"/>
     <use xlink:href="#DejaVuSans-20" transform="translate(6468.359375 0)"/>
     <use xlink:href="#DejaVuSans-61" transform="translate(6500.146484 0)"/>
     <use xlink:href="#DejaVuSans-6e" transform="translate(6561.425781 0)"/>
     <use xlink:href="#DejaVuSans-64" transform="translate(6624.804688 0)"/>
     <use xlink:href="#DejaVuSans-20" transform="translate(6688.28125 0)"/>
     <use xlink:href="#DejaVuSans-75" transform="translate(6720.068359 0)"/>
     <use xlink:href="#DejaVuSans-6e" transform="translate(6783.447266 0)"/>
     <use xlink:href="#DejaVuSans-63" transform="translate(6846.826172 0)"/>
     <use xlink:href="#DejaVuSans-65" transform="translate(6901.806641 0)"/>
     <use xlink:href="#DejaVuSans-72" transform="translate(6963.330078 0)"/>
     <use xlink:href="#DejaVuSans-74" transform="translate(7004.443359 0)"/>
     <use xlink:href="#DejaVuSans-61" transform="translate(7043.652344 0)"/>
     <use xlink:href="#DejaVuSans-69" transform="translate(7104.931641 0)"/>
     <use xlink:href="#DejaVuSans-6e" transform="translate(7132.714844 0)"/>
     <use xlink:href="#DejaVuSans-74" transform="translate(7196.09375 0)"/>
     <use xlink:href="#DejaVuSans-79" transform="translate(7235.302734 0)"/>
     <use xlink:href="#DejaVuSans-20" transform="translate(7294.482422 0)"/>
     <use xlink:href="#DejaVuSans-72" transform="translate(7326.269531 0)"/>
     <use xlink:href="#DejaVuSans-65" transform="translate(7365.132812 0)"/>
     <use xlink:href="#DejaVuSans-74" transform="translate(7426.65625 0)"/>
     <use xlink:href="#DejaVuSans-61" transform="translate(7465.865234 0)"/>
     <use xlink:href="#DejaVuSans-69" transform="translate(7527.144531 0)"/>
     <use xlink:href="#DejaVuSans-6e" transform="translate(7554.927734 0)"/>
     <use xlink:href="#DejaVuSans-65" transform="translate(7618.306641 0)"/>
     <use xlink:href="#DejaVuSans-64" transform="translate(7679.830078 0)"/>
     <use xlink:href="#DejaVuSans-2e" transform="translate(7743.306641 0)"/>
    </g>
   </g>
  </g>
 </g>
 <defs>
  <clipPath id="p5af5597a23">
   <rect x="108.863477" y="7.2" width="457.56" height="177.408"/>
  </clipPath>
 </defs>
</svg>
